<?xml version="1.0" encoding="utf-8"?>
<!-- Generator: Adobe Illustrator 18.1.1, SVG Export Plug-In . SVG Version: 6.00 Build 0)  -->
<svg version="1.1" id="Layer_1" xmlns="http://www.w3.org/2000/svg" xmlns:xlink="http://www.w3.org/1999/xlink" x="0px" y="0px"
	 viewBox="0 0 512 512" enable-background="new 0 0 512 512" xml:space="preserve">
<g>
	<g>
		<g>
			<path fill="none" stroke="#FFFFFF" stroke-miterlimit="10" d="M-20.5-25.9h553v553h-553V-25.9z"/>
			<path fill="none" stroke="#FFFFFF" stroke-miterlimit="10" d="M71.7,20.2h368.7c12.7,0,23,10.3,23,23v444.2
				c0,6.4-5.1,11.5-11.5,11.5c-1.6,0-3.2-0.3-4.7-1L256,412.5L64.8,497.8c-5.8,2.6-12.6,0-15.2-5.8c-0.7-1.5-1-3.1-1-4.7V43.2
				C48.6,30.5,58.9,20.2,71.7,20.2z M417.3,434.1V66.2H94.7v367.9l161.3-72L417.3,434.1z M256,285.1l-67.7,35.6l12.9-75.4
				l-54.8-53.4l75.7-11l33.8-68.6l33.9,68.6l75.7,11l-54.8,53.4l12.9,75.4L256,285.1z"/>
		</g>
	</g>
</g>
</svg>
