<?xml version="1.0" encoding="utf-8"?>
<!-- Generator: Adobe Illustrator 18.1.1, SVG Export Plug-In . SVG Version: 6.00 Build 0)  -->
<svg version="1.1" id="Layer_1" xmlns="http://www.w3.org/2000/svg" xmlns:xlink="http://www.w3.org/1999/xlink" x="0px" y="0px"
	 viewBox="0 0 512 512" enable-background="new 0 0 512 512" xml:space="preserve">
<g>
	<title>home</title>
	<desc>Created with Sketch.</desc>
	<g id="Icons_1_">
		<g id="Rounded_1_" transform="translate(-816.000000, -289.000000)">
			<g id="Action_1_" transform="translate(100.000000, 100.000000)">
				<g id="_x2D_Round-_x2F_-Action-_x2F_-home_1_" transform="translate(714.000000, 186.000000)">
					<g transform="translate(0.000000, 0.000000)">
						<polygon id="Path_1_" fill="none" stroke="#FFFFFF" stroke-miterlimit="10" points="-52.5,-60 553.9,-60 553.9,546.4 
							-52.5,546.4 						"/>
						<path id="_xD83D__xDD39_Icon-Color_1_" fill="none" stroke="#FFFFFF" stroke-miterlimit="10" d="M200.2,420.1V293.7h101.1
							v126.3c0,13.9,11.4,25.3,25.3,25.3h75.8c13.9,0,25.3-11.4,25.3-25.3V243.2h43c11.6,0,17.2-14.4,8.3-22L267.7,31
							c-9.6-8.6-24.3-8.6-33.9,0L22.6,221.2c-8.6,7.6-3.3,22,8.3,22h43v176.9c0,13.9,11.4,25.3,25.3,25.3h75.8
							C188.8,445.3,200.2,434,200.2,420.1z"/>
					</g>
				</g>
			</g>
		</g>
	</g>
</g>
</svg>
