<?xml version="1.0" encoding="utf-8"?>
<!-- Generator: Adobe Illustrator 18.1.1, SVG Export Plug-In . SVG Version: 6.00 Build 0)  -->
<svg version="1.1" id="Layer_1" xmlns="http://www.w3.org/2000/svg" xmlns:xlink="http://www.w3.org/1999/xlink" x="0px" y="0px"
	 viewBox="0 0 512 512" enable-background="new 0 0 512 512" xml:space="preserve">
<g>
	<path fill="none" stroke="#FFFFFF" stroke-miterlimit="10" d="M227.1,236.7v-57.9l96.5,77.2l-96.5,77.2v-57.9H53.5v-38.6
		L227.1,236.7L227.1,236.7z M81.6,313.9h41c32.1,79,122.1,117,201.1,85c58.2-23.6,96.2-80.1,96.3-142.8c0-85.2-69-154.4-154.2-154.4
		c-63,0-119.6,38.2-143.2,96.5h-41c24.6-78.3,97.7-135,184.1-135c106.5,0,192.9,86.4,192.9,192.9S372.3,449,265.7,449
		C179.3,449,106.2,392.2,81.6,313.9z"/>
</g>
</svg>
